<svg xmlns="http://www.w3.org/2000/svg" version="1.1" xmlns:xlink="http://www.w3.org/1999/xlink" xmlns:svgjs="http://svgjs.com/svgjs" width="100%" height="100%"><svg height="100%" stroke-miterlimit="10" style="fill-rule:nonzero;clip-rule:evenodd;stroke-linecap:round;stroke-linejoin:round;" version="1.1" viewBox="0 0 378.185 494.027" width="100%" xml:space="preserve" xmlns="http://www.w3.org/2000/svg" xmlns:vectornator="http://vectornator.io" xmlns:xlink="http://www.w3.org/1999/xlink">
<defs></defs>
<g id="SvgjsG1002" vectornator:layername="Layer 1">
<g opacity="1">
<g opacity="1">
<path d="M94.1987 181.597C85.0526 203.664 68.9325 244.386 62.3347 264.326C50.6524 299.632 51.5597 306.378 53.6162 315.632C56.834 330.112 75.7387 363.497 75.7387 363.497L73.7275 375.564C73.7275 375.564 26.2647 400.1 47.1805 403.318C68.0964 406.536 120.696 377.608 120.696 377.608L163.078 377.36C163.078 377.36 209.151 425.214 230.469 409.93C251.787 394.645 208.417 373.401 208.417 373.401C208.417 373.401 335.519 382.727 336.324 331.242C336.676 308.679 317.349 311.731 294.135 321.13C264.379 333.177 228.236 355.652 218.972 347.97C206.369 337.518 234.764 322.447 218.766 266.635C216.686 259.377 198.728 189.866 188.381 178.824" fill="#e3e2e2" fill-rule="nonzero" opacity="1" stroke="#3c3c3c" stroke-linecap="round" stroke-linejoin="round" stroke-width="6"></path>
<path d="M306.969 362.325C306.917 360.019 305.534 352.457 303.267 344.624C300.059 333.54 295.081 321.911 289.601 323.859C284.418 325.702 279.563 328.36 274.544 330.611C287.158 331.604 291.809 356.519 290.422 366.611" fill="#3c3c3c" fill-rule="nonzero" opacity="1" stroke="#3c3c3c" stroke-linecap="round" stroke-linejoin="round" stroke-width="6"></path>
</g>
<g opacity="1">
<path d="M67.2449 250.926C67.2449 250.926 69.1343 267.458 96.5302 292.964C123.926 318.471 137.624 302.411 137.624 302.411C143.765 283.045 98.4196 240.062 98.4196 240.062" fill="#e3e2e2" fill-rule="nonzero" opacity="1" stroke="#3c3c3c" stroke-linecap="round" stroke-linejoin="round" stroke-width="6"></path>
<path d="M214.243 252.343C214.243 252.343 212.354 268.875 184.958 294.381C157.562 319.888 143.864 303.828 143.864 303.828C137.724 284.462 183.069 241.479 183.069 241.479" fill="#e3e2e2" fill-rule="nonzero" opacity="1" stroke="#3c3c3c" stroke-linecap="round" stroke-linejoin="round" stroke-width="6"></path>
</g>
<path d="M89.3889 199.424C93.3885 213.533 114.637 234.533 124.25 211.633C138.064 227.376 143.892 227.62 156.183 210.336C176.147 232.707 181.405 217.17 196.194 199.424" fill="#e3e2e2" fill-rule="nonzero" opacity="1" stroke="#3c3c3c" stroke-linecap="round" stroke-linejoin="round" stroke-width="6"></path>
</g>
<path d="M187.002 92.8958C187.002 92.8958 206.803 72.9349 220.829 84.9114C234.855 96.8879 220.004 130.156 220.004 130.156C220.004 130.156 223.237 148.297 222.412 161.604C221.862 170.47 209.927 177.7 189.093 189.478C179.174 195.085 160.041 202.938 141.257 203.59C120.587 204.308 99.8011 194.22 90.4613 189.478C67.9013 178.024 56.7637 168.592 56.2178 159.788C55.3928 146.481 59.1056 130.512 59.1056 130.512C59.1056 130.512 44.2544 97.2442 58.2805 85.2677C72.3066 73.2911 92.1082 93.252 92.1082 93.252L139.597 93.5794L187.002 92.8958Z" fill="#e3e2e2" fill-rule="nonzero" opacity="1" stroke="#3c3c3c" stroke-linecap="round" stroke-linejoin="round" stroke-width="8.71635"></path>
<path d="M134.858 158.926C134.858 156.522 136.961 157.386 139.555 157.386C142.149 157.386 144.251 156.522 144.251 158.926C144.251 161.33 142.149 165.974 139.555 165.974C136.961 165.974 134.858 161.33 134.858 158.926Z" fill="#3c3c3c" fill-rule="nonzero" opacity="1" stroke="#3c3c3c" stroke-linecap="butt" stroke-linejoin="round" stroke-width="8.71635"></path>
<path d="M119.655 173.723C128.01 182.648 139.555 169.97 139.555 169.97C139.555 169.97 151.347 182.648 159.455 173.723" fill="none" opacity="1" stroke="#3c3c3c" stroke-linecap="round" stroke-linejoin="round" stroke-width="4.92687"></path>
</g>
<g id="SvgjsG1001" vectornator:layername="Processor">
<g opacity="1">
<path d="M188.648 412.942L90.4613 412.942L90.4613 312.942L188.648 312.942L188.648 412.942Z" fill="#4c4c4c" fill-rule="nonzero" opacity="1" stroke="#3c3c3c" stroke-linecap="butt" stroke-linejoin="round" stroke-width="6"></path>
<g opacity="1">
<path d="M150.119 385.261C141.826 385.261 138.234 381.141 138.234 374.961C138.234 368.993 141.562 366.774 146.791 364.978L150.277 363.869C154.291 362.496 155.559 361.017 155.559 357.636C155.559 354.256 153.129 352.143 148.798 352.143C144.889 352.143 142.09 353.147 140.03 354.098L140.03 350.559C141.984 349.608 144.467 348.604 148.64 348.604C156.034 348.604 159.679 352.513 159.679 358.006C159.679 363.394 156.879 365.929 151.914 367.567L148.481 368.781C144.203 370.155 142.46 371.634 142.46 375.278C142.46 379.134 144.837 381.669 150.277 381.669C154.027 381.669 157.513 380.719 160.207 379.345L160.207 382.884C157.83 384.205 154.45 385.261 150.119 385.261Z" fill="#f5f5f5" fill-rule="nonzero" opacity="1" stroke="none"></path>
<path d="M121.332 385.103C117.687 385.103 115.363 384.046 113.673 383.043L113.673 379.768C114.994 380.507 117.318 381.616 120.857 381.616C126.455 381.616 129.255 378.606 129.255 371.898L129.255 370.63C129.255 364.609 126.138 361.387 121.385 361.387C117.951 361.387 116.261 362.02 113.937 363.077L113.937 359.696C115.68 358.587 117.74 357.953 121.173 357.953C127.934 357.953 133.428 361.968 133.428 371.264L133.428 372.056C133.428 380.666 128.832 385.103 121.332 385.103Z" fill="#f5f5f5" fill-rule="nonzero" opacity="1" stroke="none"></path>
</g>
</g>
</g>
<g id="SvgjsG1000" vectornator:layername="Layer 4">
<path d="M125.847 121.431C115.337 107.999 74.5367 107.485 62.1557 123.951C57.4624 130.192 53.9166 142.607 59.7009 151.561C73.6302 173.124 115.666 153.255 115.666 153.255C115.666 153.255 127.57 143.951 139.514 143.909C151.458 143.866 163.443 153.084 163.443 153.084C163.443 153.084 205.479 172.953 219.409 151.39C225.193 142.436 221.647 130.022 216.954 123.78C211.273 116.224 199.607 112.244 187.63 111.446C173.506 110.506 158.95 113.992 153.263 121.26C152.749 122.139 146.317 116.59 139.463 116.632C132.609 116.675 126.325 122.249 125.847 121.431Z" fill="#4c4c4c" fill-rule="nonzero" opacity="1" stroke="none"></path>
<path d="M159.455 137.54C159.455 133.075 163.445 129.456 168.368 129.456C173.291 129.456 177.282 133.075 177.282 137.54C177.282 142.005 173.291 145.625 168.368 145.625C163.445 145.625 159.455 142.005 159.455 137.54Z" fill="#e3e2e2" fill-rule="nonzero" opacity="1" stroke="#3c3c3c" stroke-linecap="butt" stroke-linejoin="round" stroke-width="5.07547"></path>
<path d="M101.828 137.54C101.828 133.075 105.819 129.456 110.742 129.456C115.664 129.456 119.655 133.075 119.655 137.54C119.655 142.005 115.664 145.625 110.742 145.625C105.819 145.625 101.828 142.005 101.828 137.54Z" fill="#e3e2e2" fill-rule="nonzero" opacity="1" stroke="#3c3c3c" stroke-linecap="butt" stroke-linejoin="round" stroke-width="4.35502"></path>
</g>
</svg><style>@media (prefers-color-scheme: light) { :root { filter: none; } }
</style></svg>