<?xml version="1.0" encoding="UTF-8" standalone="no"?>
<!DOCTYPE svg PUBLIC "-//W3C//DTD SVG 1.1//EN" "http://www.w3.org/Graphics/SVG/1.1/DTD/svg11.dtd">
<!-- Created with Vectornator (http://vectornator.io/) -->
<svg height="100%" stroke-miterlimit="10" style="fill-rule:nonzero;clip-rule:evenodd;stroke-linecap:round;stroke-linejoin:round;" version="1.1" viewBox="0 0 303.086 345.674" width="100%" xml:space="preserve" xmlns="http://www.w3.org/2000/svg" xmlns:vectornator="http://vectornator.io" xmlns:xlink="http://www.w3.org/1999/xlink">
<defs/>
<g id="Layer-1" vectornator:layerName="Layer 1">
<g opacity="1">
<g opacity="1">
<path d="M57.3437 107.887C48.1976 129.954 32.0775 170.676 25.4797 190.616C13.7974 225.922 14.7047 232.668 16.7612 241.922C19.979 256.402 38.8837 289.787 38.8837 289.787L36.8725 301.854C36.8725 301.854-10.5903 326.39 10.3255 329.608C31.2414 332.826 83.8408 303.898 83.8408 303.898L126.223 303.65C126.223 303.65 172.296 351.504 193.614 336.22C214.932 320.935 171.562 299.691 171.562 299.691C171.562 299.691 298.664 309.017 299.469 257.532C299.821 234.969 280.494 238.021 257.28 247.42C227.524 259.467 191.381 281.942 182.117 274.26C169.514 263.808 197.909 248.737 181.911 192.925C179.831 185.667 161.873 116.156 151.526 105.114" fill="#e3e2e2" fill-rule="nonzero" opacity="1" stroke="#3c3c3c" stroke-linecap="round" stroke-linejoin="round" stroke-width="6"/>
<path d="M270.114 288.615C270.062 286.309 268.679 278.747 266.412 270.914C263.204 259.83 258.226 248.201 252.746 250.149C247.563 251.992 242.708 254.65 237.689 256.901C250.303 257.894 254.954 282.809 253.567 292.901" fill="#3c3c3c" fill-rule="nonzero" opacity="1" stroke="#3c3c3c" stroke-linecap="round" stroke-linejoin="round" stroke-width="6"/>
</g>
<g opacity="1">
<path d="M30.3899 177.216C30.3899 177.216 32.2793 193.748 59.6752 219.254C87.0711 244.761 100.769 228.701 100.769 228.701C106.91 209.335 61.5646 166.352 61.5646 166.352" fill="#e3e2e2" fill-rule="nonzero" opacity="1" stroke="#3c3c3c" stroke-linecap="round" stroke-linejoin="round" stroke-width="6"/>
<path d="M177.388 178.633C177.388 178.633 175.499 195.165 148.103 220.671C120.707 246.178 107.009 230.118 107.009 230.118C100.869 210.752 146.214 167.769 146.214 167.769" fill="#e3e2e2" fill-rule="nonzero" opacity="1" stroke="#3c3c3c" stroke-linecap="round" stroke-linejoin="round" stroke-width="6"/>
</g>
<path d="M52.5339 125.714C56.5335 139.823 77.7824 160.823 87.3954 137.923C101.209 153.666 107.037 153.91 119.328 136.626C139.292 158.997 144.55 143.46 159.339 125.714" fill="#e3e2e2" fill-rule="nonzero" opacity="1" stroke="#3c3c3c" stroke-linecap="round" stroke-linejoin="round" stroke-width="6"/>
</g>
<path d="M150.147 19.1858C150.147 19.1858 169.948-0.775097 183.974 11.2014C198 23.1779 183.149 56.4461 183.149 56.4461C183.149 56.4461 186.382 74.5871 185.557 87.8944C185.007 96.7596 172.628 108.82 151.793 120.598C141.875 126.205 123.186 129.228 104.402 129.88C83.7316 130.598 62.9461 128.444 53.6063 123.702C31.0463 112.249 19.9087 94.8819 19.3628 86.0782C18.5378 72.771 22.2506 56.8023 22.2506 56.8023C22.2506 56.8023 7.39938 23.5342 21.4255 11.5577C35.4516-0.418855 55.2532 19.542 55.2532 19.542L102.742 19.8694L150.147 19.1858Z" fill="#e3e2e2" fill-rule="nonzero" opacity="1" stroke="#3c3c3c" stroke-linecap="round" stroke-linejoin="round" stroke-width="8.71635"/>
<path d="M98.0034 85.2162C98.0034 82.812 100.106 83.6756 102.7 83.6756C105.294 83.6756 107.396 82.812 107.396 85.2162C107.396 87.6203 105.294 92.264 102.7 92.264C100.106 92.264 98.0034 87.6203 98.0034 85.2162Z" fill="#3c3c3c" fill-rule="nonzero" opacity="1" stroke="#3c3c3c" stroke-linecap="butt" stroke-linejoin="round" stroke-width="8.71635"/>
<path d="M82.8 100.013C91.1548 108.938 102.7 96.2605 102.7 96.2605C102.7 96.2605 114.492 108.938 122.6 100.013" fill="none" opacity="1" stroke="#3c3c3c" stroke-linecap="round" stroke-linejoin="round" stroke-width="4.92687"/>
</g>
<g id="Processor" vectornator:layerName="Processor">
<g opacity="1">
<path d="M152.831 339.232L53.6063 339.232L53.6063 239.232L152.831 239.232L152.831 339.232Z" fill="#4c4c4c" fill-rule="nonzero" opacity="1" stroke="#3c3c3c" stroke-linecap="butt" stroke-linejoin="round" stroke-width="6"/>
<g opacity="1">
<path d="M113.14 307.504C104.846 307.504 101.254 303.385 101.254 297.205C101.254 291.236 104.582 289.018 109.812 287.222L113.298 286.113C117.313 284.739 118.581 283.26 118.581 279.88C118.581 276.499 116.151 274.387 111.819 274.387C107.91 274.387 105.11 275.39 103.05 276.341L103.05 272.802C105.004 271.851 107.487 270.848 111.661 270.848C119.056 270.848 122.701 274.756 122.701 280.25C122.701 285.637 119.901 288.173 114.936 289.81L111.502 291.025C107.223 292.398 105.48 293.877 105.48 297.522C105.48 301.377 107.857 303.913 113.298 303.913C117.049 303.913 120.535 302.962 123.229 301.589L123.229 305.128C120.852 306.448 117.471 307.504 113.14 307.504Z" fill="#f5f5f5" fill-rule="nonzero" opacity="1" stroke="none"/>
<path d="M84.3497 307.346C80.7047 307.346 78.3804 306.29 76.69 305.286L76.69 302.011C78.0106 302.751 80.3349 303.86 83.8742 303.86C89.4737 303.86 92.2735 300.849 92.2735 294.141L92.2735 292.873C92.2735 286.852 89.1568 283.63 84.4025 283.63C80.9688 283.63 79.2784 284.264 76.9541 285.32L76.9541 281.94C78.6973 280.831 80.7575 280.197 84.1912 280.197C90.9529 280.197 96.4467 284.211 96.4467 293.507L96.4467 294.3C96.4467 302.909 91.8509 307.346 84.3497 307.346Z" fill="#f5f5f5" fill-rule="nonzero" opacity="1" stroke="none"/>
</g>
</g>
</g>
<g id="Layer-4" vectornator:layerName="Layer 4">
<path d="M88.9916 47.7205C78.4823 34.289 37.6817 33.7746 25.3007 50.2406C20.6074 56.4824 17.0616 68.8966 22.8459 77.8509C36.7752 99.414 78.8113 79.5451 78.8113 79.5451C78.8113 79.5451 90.7146 70.2414 102.659 70.1987C114.603 70.1561 126.588 79.3743 126.588 79.3743C126.588 79.3743 168.624 99.2433 182.554 77.6801C188.338 68.7259 184.792 56.3117 180.099 50.0698C174.418 42.5139 162.752 38.5336 150.775 37.7362C136.651 36.7959 122.095 40.2817 116.408 47.5498C115.894 48.4293 109.462 42.8795 102.608 42.9222C95.7539 42.9649 89.4699 48.5391 88.9916 47.7205Z" fill="#4c4c4c" fill-rule="nonzero" opacity="1" stroke="none"/>
<path d="M122.6 63.8303C122.6 59.3655 126.59 55.746 131.513 55.746C136.436 55.746 140.427 59.3655 140.427 63.8303C140.427 68.2952 136.436 71.9147 131.513 71.9147C126.59 71.9147 122.6 68.2952 122.6 63.8303Z" fill="#e3e2e2" fill-rule="nonzero" opacity="1" stroke="#3c3c3c" stroke-linecap="butt" stroke-linejoin="round" stroke-width="5.07547"/>
<path d="M64.973 63.8303C64.973 59.3655 68.9637 55.746 73.8865 55.746C78.8093 55.746 82.8 59.3655 82.8 63.8303C82.8 68.2952 78.8093 71.9147 73.8865 71.9147C68.9637 71.9147 64.973 68.2952 64.973 63.8303Z" fill="#e3e2e2" fill-rule="nonzero" opacity="1" stroke="#3c3c3c" stroke-linecap="butt" stroke-linejoin="round" stroke-width="4.35502"/>
</g>
</svg>
