<?xml version="1.0" encoding="UTF-8" standalone="no"?>
<!DOCTYPE svg PUBLIC "-//W3C//DTD SVG 1.1//EN" "http://www.w3.org/Graphics/SVG/1.1/DTD/svg11.dtd">
<!-- Created with Vectornator (http://vectornator.io/) -->
<svg height="100%" stroke-miterlimit="10" style="fill-rule:nonzero;clip-rule:evenodd;stroke-linecap:round;stroke-linejoin:round;" version="1.1" viewBox="0 0 303.086 345.674" width="100%" xml:space="preserve" xmlns="http://www.w3.org/2000/svg" xmlns:vectornator="http://vectornator.io" xmlns:xlink="http://www.w3.org/1999/xlink">
<defs/>
<clipPath id="ArtboardFrame">
<rect height="345.674" width="303.086" x="0" y="0"/>
</clipPath>
<g clip-path="url(#ArtboardFrame)" id="Layer-1" vectornator:layerName="Layer 1">
<g opacity="1">
<g opacity="1">
<path d="M57.3437 107.887C48.1976 129.954 32.0775 170.676 25.4797 190.616C13.7974 225.922 14.7047 232.668 16.7612 241.922C19.979 256.402 38.8837 289.787 38.8837 289.787L36.8725 301.854C36.8725 301.854-10.5903 326.39 10.3255 329.608C31.2414 332.826 83.8408 303.898 83.8408 303.898L126.223 303.65C126.223 303.65 172.296 351.504 193.614 336.22C214.932 320.935 171.562 299.691 171.562 299.691C171.562 299.691 298.664 309.017 299.469 257.532C299.821 234.969 280.494 238.021 257.28 247.42C227.524 259.467 191.381 281.942 182.117 274.26C169.514 263.808 197.909 248.737 181.911 192.925C179.831 185.667 161.873 116.156 151.526 105.114" fill="#e3e2e2" fill-rule="nonzero" opacity="1" stroke="#3c3c3c" stroke-linecap="round" stroke-linejoin="round" stroke-width="8"/>
</g>
<g opacity="1">
<path d="M31.7809 177.216C31.7809 177.216 33.6524 193.748 60.7891 219.254C87.9258 244.761 101.494 228.701 101.494 228.701C107.577 209.335 62.6606 166.352 62.6606 166.352" fill="#e3e2e2" fill-rule="nonzero" opacity="1" stroke="#3c3c3c" stroke-linecap="round" stroke-linejoin="round" stroke-width="8"/>
<path d="M177.388 178.633C177.388 178.633 175.517 195.165 148.38 220.671C121.243 246.178 107.675 230.118 107.675 230.118C101.593 210.752 146.509 167.769 146.509 167.769" fill="#e3e2e2" fill-rule="nonzero" opacity="1" stroke="#3c3c3c" stroke-linecap="round" stroke-linejoin="round" stroke-width="8"/>
</g>
<path d="M52.5339 126.905C56.5335 144.82 77.7824 171.486 87.3954 142.408C101.209 162.398 107.037 162.708 119.328 140.761C139.292 169.168 143.446 145.232 158.234 122.698" fill="#ffffff" fill-rule="nonzero" opacity="1" stroke="#3c3c3c" stroke-linecap="round" stroke-linejoin="round" stroke-width="8"/>
</g>
<path d="M150.147 19.1858C150.147 19.1858 169.948-0.775097 183.974 11.2014C198 23.1779 183.149 56.4461 183.149 56.4461C183.149 56.4461 186.382 74.5871 185.557 87.8944C185.007 96.7596 172.628 108.82 151.793 120.598C141.875 126.205 123.186 129.228 104.402 129.88C83.7316 130.598 62.9461 128.444 53.6063 123.702C31.0463 112.249 19.9087 94.8819 19.3628 86.0782C18.5378 72.771 22.2506 56.8023 22.2506 56.8023C22.2506 56.8023 7.39938 23.5342 21.4255 11.5577C35.4516-0.418855 55.2532 19.542 55.2532 19.542L102.742 19.8694L150.147 19.1858Z" fill="#e3e2e2" fill-rule="nonzero" opacity="1" stroke="#3c3c3c" stroke-linecap="round" stroke-linejoin="round" stroke-width="8"/>
<path d="M91.5351 79.9782C91.5351 74.4218 96.5337 76.4176 102.7 76.4176C108.866 76.4176 113.865 74.4218 113.865 79.9782C113.865 85.5347 108.866 96.2672 102.7 96.2672C96.5337 96.2672 91.5351 85.5347 91.5351 79.9782Z" fill="#3c3c3c" fill-rule="nonzero" opacity="1" stroke="none"/>
<path d="M103.219 81.3207C103.219 79.9821 104.167 78.897 105.337 78.897C106.506 78.897 107.455 79.9821 107.455 81.3207C107.455 82.6592 106.506 83.7443 105.337 83.7443C104.167 83.7443 103.219 82.6592 103.219 81.3207Z" fill="#ffffff" fill-rule="nonzero" opacity="1" stroke="none"/>
<path d="M-59.6499-26.0784C-61.7738-25.9875-63.8978-25.8966-66.0218-25.8057" fill="#ffffff" fill-rule="nonzero" opacity="1" stroke="none"/>
<path d="M81.7989 96.2672C81.7989 99.9645 86.3098 105.004 91.5351 105.114C96.7603 105.225 101.486 97.7405 102.7 96.7081C103.915 97.7423 108.766 105.225 113.865 105.114C118.963 105.004 123.094 99.9645 123.094 96.2672" fill="none" opacity="1" stroke="#3c3c3c" stroke-linecap="round" stroke-linejoin="round" stroke-width="5.07547"/>
<path d="M257.077 248.817C266.982 255.736 271.249 278.801 267.206 289.232C298.924 286.556 276.483 229.244 257.077 248.817Z" fill="#3c3c3c" fill-rule="nonzero" opacity="1" stroke="#3c3c3c" stroke-linecap="butt" stroke-linejoin="round" stroke-width="8"/>
<path d="M223.677 264.688C231.903 270.252 235.448 288.803 232.09 297.192C258.433 295.04 239.795 248.946 223.677 264.688Z" fill="#3c3c3c" fill-rule="nonzero" opacity="1" stroke="#3c3c3c" stroke-linecap="butt" stroke-linejoin="round" stroke-width="8"/>
</g>
<g id="Processor" vectornator:layerName="Processor">
<g opacity="1">
<path d="M152.831 339.232L53.6063 339.232L53.6063 239.232L152.831 239.232L152.831 339.232Z" fill="#4c4c4c" fill-rule="nonzero" opacity="1" stroke="#3c3c3c" stroke-linecap="butt" stroke-linejoin="round" stroke-width="6"/>
<g opacity="1">
<path d="M113.14 307.504C104.846 307.504 101.254 303.385 101.254 297.205C101.254 291.236 104.582 289.018 109.812 287.222L113.298 286.113C117.313 284.739 118.581 283.26 118.581 279.88C118.581 276.499 116.151 274.387 111.819 274.387C107.91 274.387 105.11 275.39 103.05 276.341L103.05 272.802C105.004 271.851 107.487 270.848 111.661 270.848C119.056 270.848 122.701 274.756 122.701 280.25C122.701 285.637 119.901 288.173 114.936 289.81L111.502 291.025C107.223 292.398 105.48 293.877 105.48 297.522C105.48 301.377 107.857 303.913 113.298 303.913C117.049 303.913 120.535 302.962 123.229 301.589L123.229 305.128C120.852 306.448 117.471 307.504 113.14 307.504Z" fill="#f5f5f5" fill-rule="nonzero" opacity="1" stroke="none"/>
<path d="M84.3497 307.346C80.7047 307.346 78.3804 306.29 76.69 305.286L76.69 302.011C78.0106 302.751 80.3349 303.86 83.8742 303.86C89.4737 303.86 92.2735 300.849 92.2735 294.141L92.2735 292.873C92.2735 286.852 89.1568 283.63 84.4025 283.63C80.9688 283.63 79.2784 284.264 76.9541 285.32L76.9541 281.94C78.6973 280.831 80.7575 280.197 84.1912 280.197C90.9529 280.197 96.4467 284.211 96.4467 293.507L96.4467 294.3C96.4467 302.909 91.8509 307.346 84.3497 307.346Z" fill="#f5f5f5" fill-rule="nonzero" opacity="1" stroke="none"/>
</g>
</g>
</g>
<g id="Layer-4" vectornator:layerName="Layer 4">
<path d="M88.9916 47.7205C78.4823 34.289 37.6817 33.7746 25.3007 50.2406C20.6074 56.4824 17.0616 68.8966 22.8459 77.8509C36.7752 99.414 78.8113 79.5451 78.8113 79.5451C78.8113 79.5451 90.7146 70.2414 102.659 70.1987C114.603 70.1561 126.588 79.3743 126.588 79.3743C126.588 79.3743 168.624 99.2433 182.554 77.6801C188.338 68.7259 184.792 56.3117 180.099 50.0698C174.418 42.5139 162.752 38.5336 150.775 37.7362C136.651 36.7959 122.095 40.2817 116.408 47.5498C115.894 48.4293 109.462 42.8795 102.608 42.9222C95.7539 42.9649 89.4699 48.5391 88.9916 47.7205Z" fill="#4c4c4c" fill-rule="nonzero" opacity="1" stroke="#3c3c3c" stroke-linecap="round" stroke-linejoin="round" stroke-width="2"/>
<g opacity="1">
<path d="M75.958 78.848C73.5977 80.095 71.2922 75.5669 66.7634 75.5832C62.2347 75.5996 61.2524 85.8469 57.8431 78.9134C54.4338 71.9798 52.2823 56.6534 57.0217 49.3828C61.761 42.1123 73.3869 41.6614 79.4312 52.9711C85.4756 64.2809 78.3183 77.6009 75.958 78.848Z" fill="#ffffff" fill-rule="nonzero" opacity="1" stroke="#3c3c3c" stroke-linecap="butt" stroke-linejoin="round" stroke-width="1.94412"/>
<path d="M79.5723 61.1958C79.5723 53.1996 74.455 46.7174 68.1425 46.7174C61.83 46.7174 56.7127 53.1996 56.7127 61.1958C56.7127 69.1921 61.83 75.6743 68.1425 75.6743C74.455 75.6743 79.5723 69.1921 79.5723 61.1958Z" fill="#303030" fill-rule="nonzero" opacity="1" stroke="none"/>
<path d="M68.7115 53.4426C68.7115 51.3761 70.3363 49.7008 72.3407 49.7008C74.345 49.7008 75.9699 51.3761 75.9699 53.4426C75.9699 55.5092 74.345 57.1844 72.3407 57.1844C70.3363 57.1844 68.7115 55.5092 68.7115 53.4426Z" fill="#ffffff" fill-rule="nonzero" opacity="1" stroke="none"/>
</g>
<g opacity="1">
<path d="M128.935 78.848C131.296 80.095 133.601 75.5669 138.13 75.5832C142.659 75.5996 143.641 85.8469 147.05 78.9134C150.459 71.9798 152.611 56.6534 147.872 49.3828C143.132 42.1123 131.506 41.6614 125.462 52.9711C119.418 64.2809 126.575 77.6009 128.935 78.848Z" fill="#ffffff" fill-rule="nonzero" opacity="1" stroke="#3c3c3c" stroke-linecap="butt" stroke-linejoin="round" stroke-width="2"/>
<path d="M125.321 61.1958C125.321 53.1996 130.438 46.7174 136.751 46.7174C143.063 46.7174 148.181 53.1996 148.181 61.1958C148.181 69.1921 143.063 75.6743 136.751 75.6743C130.438 75.6743 125.321 69.1921 125.321 61.1958Z" fill="#303030" fill-rule="nonzero" opacity="1" stroke="none"/>
<path d="M136.182 53.4426C136.182 51.3761 134.557 49.7008 132.553 49.7008C130.548 49.7008 128.923 51.3761 128.923 53.4426C128.923 55.5092 130.548 57.1844 132.553 57.1844C134.557 57.1844 136.182 55.5092 136.182 53.4426Z" fill="#ffffff" fill-rule="nonzero" opacity="1" stroke="none"/>
</g>
</g>
</svg>
